<mxfile host="app.diagrams.net" modified="2024-03-15T15:15:40.878Z" agent="Mozilla/5.0 (Windows NT 10.0; Win64; x64) AppleWebKit/537.36 (KHTML, like Gecko) Chrome/122.0.0.0 Safari/537.36" etag="5IYwn_uNbi_c3HDbs3qf" version="24.0.6" type="github">
  <diagram name="第 1 页" id="V-rLtfpyUmNj_tRYqV6K">
    <mxGraphModel dx="2327" dy="807" grid="1" gridSize="10" guides="1" tooltips="1" connect="1" arrows="1" fold="1" page="1" pageScale="1" pageWidth="827" pageHeight="1169" math="0" shadow="0">
      <root>
        <mxCell id="0" />
        <mxCell id="1" parent="0" />
        <mxCell id="s9povCAqte1xbN43og-K-2" value="" style="shape=image;verticalLabelPosition=bottom;labelBackgroundColor=default;verticalAlign=top;aspect=fixed;imageAspect=0;image=data:image/png,iVBORw0KGgoAAAANSUhEUgAAAPUAAAFCCAMAAAAe12suAAAAAXNSR0IArs4c6QAAAARnQU1BAACxjwv8YQUAAABCUExURQAAAAAA/6Kux8rZ99Th+sPP+gAA/2Zu3HN6+1FZ5C4x7zk+/iks/h0e/hMU+Rga/xIT/wsM/gAA/wQE/gIC/gAA/6M6Y20AAAAVdFJOUwAwZWVlaoCCjJCyssXU2Nji7O/1+iyxnb8AAAAJcEhZcwAAFxEAABcRAcom8z8AAAQdSURBVHhe7d2HddxAAENBOVvO6fpv1cq6QPI2gQ/A4leAqQA3u/Tmz4Gqp1nY2NC7qO/Q396z9OH7Pmo29N891HToTzuo+dBv8WpCNF7NiIarKdFoNScarCZFY9WsaKiaFo1U86KBamI0Ts2Mhqmp0Sg1NxqkJkdj1OxoiJoejVDzowFqAfR4tQJ6uFoCPVqtgR6sFkGPVaugh6pl0CPVOuiBaiH0OLUSephaCj1KrYUepBZDj1GroYeo5dAj1HroAWpBdL9aEd2tlkT3qjXRnWpRdJ9aFd2llkX3qHXRHWphdLtaGd2slka3qrXRjWpxdJtaHd2klke3qPXRDWoDdL3aAV2ttkDXqj3QlWoTdJ3aBV2ltkHXqH3QFWojdLnaCV2stkKXqr3QhWozdJnaDV2ktkOXqP3QBWpD9HW1I/qq2hJ9Te2JvqI2RW+rXdGbalv0ltoXvaE2Rq+rndGramv0mtobvaI2Ry+r3dGLanv0ktofvaCeAH2pngF9oZ4Cfa6eA32mngR9qp4FfaKeBn2sngd9pJ4I/aqeCf2ingr9rJ4L/aSeDP2ong39oJ4Ofa++Q//6TNMe6Hs12VHBDuh79eHwk6ffhy9Py5A9qN/x9DVqWFEzFDWuqBmKGlfUDEWNK2qGosYVNUNR44qaoahxRc1Q1LiiZihqXFEzFDWuqBmKGlfUDEWNK2qGosYVNUNR44qaoahxRc1Q1LiiZihqXFEzFDWuqBmKGlfUDEWNK2qGosYVNUNR44qaoahxRc1Q1LiiZihqXFEzFDWuqBmKGlfUDEWNK2qGosYVNUNR44qaoahxRc1Q1LiiZihqXFEzFDWuqBmKGlfUDEWNK2qGosYVNUNR44qaoahh3c6ovv13+Did+gE9m/oRPZn6CT2X+hk9lfoFPZP6FT2R+gg9j/oYPY36BD2L+hQ9ifoMPYf6HD2F+gI9g/oSPYF6Ae2vXkLbqxfR7upltLl6Be2tXkNbq1fRzup1tLF6A+2r3kLbqjfRrupttKn6CtpTfQ1tqb6KdlRfRxuqC9B+6hK0nboI7aYuQ5upC9Fe6lK0lboY7aQuRxupK9A+6hq0jboK7aKuQ5uoK9Ee6lq0hboa7aCuRxuoG9D66ha0vLoJra5uQ4urG9Ha6la0tLoZraxuRwurO9C66h60rLoLraruQ4uqO9Ga6l60pLobrajuRwuqB6D11CPQcuohaDX1GLSYehBaSz0KLaUehlZSj0MLqQeiddQj0TLqoWgV9Vi0iHowWkM9Gi2hHo5WUI9HC6gBaH41Ak2vhqDZ1Rg0uRqE5laj0NRqGJpZjUMTq4FoXjUSTauGolnVWDSpGozmVKPRlGo4mlGNRxOqd0DzqfdA06l3QbOpf+yCZlMfdkHfqbnaBc2m3gN9c/MfwczPPfVssu4AAAAASUVORK5CYII=;direction=north;" vertex="1" parent="1">
          <mxGeometry x="30" y="92.63" width="157.71" height="120" as="geometry" />
        </mxCell>
        <mxCell id="s9povCAqte1xbN43og-K-3" value="" style="shape=image;verticalLabelPosition=bottom;labelBackgroundColor=default;verticalAlign=top;aspect=fixed;imageAspect=0;image=data:image/png,iVBORw0KGgoAAAANSUhEUgAAALAAAACuCAMAAAChtXeHAAAAAXNSR0IArs4c6QAAAARnQU1BAACxjwv8YQUAAAGAUExURVlZWVpaWlpaWllZWVlZWW6b52+b52+c53Cc53Gd53Kd53Kd6HOe6HSe6HWf6Haf6Hag6Heg6Hig6Hmh6Hqi6Hqi6Xuj6Xyj6X2k6X6k6X+l6YCl6YGm6YKm6YOn6oSo6oWo6oap6oeq6oiq6omr6oqr64qs64yt646u65Cv65Cw7JKx7JSy7Jaz7Je07Zi17Zm17Zq27Zu37Z247p657p+67qC67qG77qK87qO976S976W+76a/76jA76jA8KrB8KvC8KzD8K3D8K7E8a/F8bDG8bHG8bLH8bPI8rTJ8rXJ8rbK8rfK8rjM87nM87rN87vN87zO873P877Q9MDR9MDS9MHS9MLT9cPU9cTU9cXV9cbW9cfW9cfX9sjY9snY9srZ9sva9sza983b987c98/d99De+NHe+NLf+NPf+NPg+NTg+NXh+dXi+dbi+dfi+dfj+djk+dnk+dnk+tnl+trl+tvl+tvm+tzm+tzn+t3n+t3n+93o+97o+97p+9/p+11/oLgAAAAEdFJOU4efx9+nhZkZAAAACXBIWXMAABcRAAAXEQHKJvM/AAACBUlEQVR4Xu3OZ9fPBQCA4QePPZOVrZCdXRlRiIRKVgPZI0XJKOSrc+7jK/xfXOf8rlf3y3tsbJwyAfsdH387/BoyDI+aOfw/pOFXkGF41IbhUWv4JWQYHrWGX0Aa/g/S8L+QYXjUGn4OafgZZBgeNXP4KaThJ5BheNQa/gfS8GNIw39DGv4LYg4/gpjDDyEN/wkxh/+ANPwAYg7/DjGH70Mavgdp+C7EHL4Dafg2pOFbEHP4JsQcvgExh69DGr4Gafg3iDl8FdLwFUjDlyEN/wpp+BdIwz9DzOGfIA1fgjR8EdLwBUjD5yENn4M0/CPEHD4LafgHSMPfQxr+DtLwGUjDpyENn4I0/C2k4ZOQhr+BNHwC0vBxSMNfQxo+Bmn4KKThI5CGv4I0/CWk4cOQhg9BGv4C0vBBSMMHIA3vhzS8D9Lw55CGP4M0/Cmk4b2QhvdAGt4NaXgXpOGdEHN4B6Th7ZCGP4E0vA3S8FZIw1sg5vBmiDm8CdLwRkjDGyDm8McQc3g9pOF1kIbXQhr+CNLwh5CG10AaXg1peBWk4ZUQc3gFpOHlkIaXQRpeCjGHP4A0vATS8GKIObwI0vBCSMMLIA2/DzGH50Mafg9iDs+DNDwX0vAciDk8G2IOz4KYwzMh5vAMSMPTIebwNMgwPGrm8FSIOTwF0vBkSMOWsYnvwjA+6Q25Ydxp0i6zRAAAAABJRU5ErkJggg==;" vertex="1" parent="1">
          <mxGeometry x="230" y="90" width="66" height="65.25" as="geometry" />
        </mxCell>
        <mxCell id="s9povCAqte1xbN43og-K-4" value="" style="shape=image;verticalLabelPosition=bottom;labelBackgroundColor=default;verticalAlign=top;aspect=fixed;imageAspect=0;image=data:image/png,iVBORw0KGgoAAAANSUhEUgAAALAAAACuCAMAAAChtXeHAAAAAXNSR0IArs4c6QAAAARnQU1BAACxjwv8YQUAAAGAUExURVlZWVpaWlpaWllZWVlZWW6b52+b52+c53Cc53Gd53Kd53Kd6HOe6HSe6HWf6Haf6Hag6Heg6Hig6Hmh6Hqi6Hqi6Xuj6Xyj6X2k6X6k6X+l6YCl6YGm6YKm6YOn6oSo6oWo6oap6oeq6oiq6omr6oqr64qs64yt646u65Cv65Cw7JKx7JSy7Jaz7Je07Zi17Zm17Zq27Zu37Z247p657p+67qC67qG77qK87qO976S976W+76a/76jA76jA8KrB8KvC8KzD8K3D8K7E8a/F8bDG8bHG8bLH8bPI8rTJ8rXJ8rbK8rfK8rjM87nM87rN87vN87zO873P877Q9MDR9MDS9MHS9MLT9cPU9cTU9cXV9cbW9cfW9cfX9sjY9snY9srZ9sva9sza983b987c98/d99De+NHe+NLf+NPf+NPg+NTg+NXh+dXi+dbi+dfi+dfj+djk+dnk+dnk+tnl+trl+tvl+tvm+tzm+tzn+t3n+t3n+93o+97o+97p+9/p+11/oLgAAAAEdFJOU4efx9+nhZkZAAAACXBIWXMAABcRAAAXEQHKJvM/AAACBUlEQVR4Xu3OZ9fPBQCA4QePPZOVrZCdXRlRiIRKVgPZI0XJKOSrc+7jK/xfXOf8rlf3y3tsbJwyAfsdH387/BoyDI+aOfw/pOFXkGF41IbhUWv4JWQYHrWGX0Aa/g/S8L+QYXjUGn4OafgZZBgeNXP4KaThJ5BheNQa/gfS8GNIw39DGv4LYg4/gpjDDyEN/wkxh/+ANPwAYg7/DjGH70Mavgdp+C7EHL4Dafg2pOFbEHP4JsQcvgExh69DGr4Gafg3iDl8FdLwFUjDlyEN/wpp+BdIwz9DzOGfIA1fgjR8EdLwBUjD5yENn4M0/CPEHD4LafgHSMPfQxr+DtLwGUjDpyENn4I0/C2k4ZOQhr+BNHwC0vBxSMNfQxo+Bmn4KKThI5CGv4I0/CWk4cOQhg9BGv4C0vBBSMMHIA3vhzS8D9Lw55CGP4M0/Cmk4b2QhvdAGt4NaXgXpOGdEHN4B6Th7ZCGP4E0vA3S8FZIw1sg5vBmiDm8CdLwRkjDGyDm8McQc3g9pOF1kIbXQhr+CNLwh5CG10AaXg1peBWk4ZUQc3gFpOHlkIaXQRpeCjGHP4A0vATS8GKIObwI0vBCSMMLIA2/DzGH50Mafg9iDs+DNDwX0vAciDk8G2IOz4KYwzMh5vAMSMPTIebwNMgwPGrm8FSIOTwF0vBkSMOWsYnvwjA+6Q25Ydxp0i6zRAAAAABJRU5ErkJggg==;" vertex="1" parent="1">
          <mxGeometry x="240" y="100" width="66" height="65.25" as="geometry" />
        </mxCell>
        <mxCell id="s9povCAqte1xbN43og-K-5" value="" style="shape=image;verticalLabelPosition=bottom;labelBackgroundColor=default;verticalAlign=top;aspect=fixed;imageAspect=0;image=data:image/png,iVBORw0KGgoAAAANSUhEUgAAALAAAACuCAMAAAChtXeHAAAAAXNSR0IArs4c6QAAAARnQU1BAACxjwv8YQUAAAGAUExURVlZWVpaWlpaWllZWVlZWW6b52+b52+c53Cc53Gd53Kd53Kd6HOe6HSe6HWf6Haf6Hag6Heg6Hig6Hmh6Hqi6Hqi6Xuj6Xyj6X2k6X6k6X+l6YCl6YGm6YKm6YOn6oSo6oWo6oap6oeq6oiq6omr6oqr64qs64yt646u65Cv65Cw7JKx7JSy7Jaz7Je07Zi17Zm17Zq27Zu37Z247p657p+67qC67qG77qK87qO976S976W+76a/76jA76jA8KrB8KvC8KzD8K3D8K7E8a/F8bDG8bHG8bLH8bPI8rTJ8rXJ8rbK8rfK8rjM87nM87rN87vN87zO873P877Q9MDR9MDS9MHS9MLT9cPU9cTU9cXV9cbW9cfW9cfX9sjY9snY9srZ9sva9sza983b987c98/d99De+NHe+NLf+NPf+NPg+NTg+NXh+dXi+dbi+dfi+dfj+djk+dnk+dnk+tnl+trl+tvl+tvm+tzm+tzn+t3n+t3n+93o+97o+97p+9/p+11/oLgAAAAEdFJOU4efx9+nhZkZAAAACXBIWXMAABcRAAAXEQHKJvM/AAACBUlEQVR4Xu3OZ9fPBQCA4QePPZOVrZCdXRlRiIRKVgPZI0XJKOSrc+7jK/xfXOf8rlf3y3tsbJwyAfsdH387/BoyDI+aOfw/pOFXkGF41IbhUWv4JWQYHrWGX0Aa/g/S8L+QYXjUGn4OafgZZBgeNXP4KaThJ5BheNQa/gfS8GNIw39DGv4LYg4/gpjDDyEN/wkxh/+ANPwAYg7/DjGH70Mavgdp+C7EHL4Dafg2pOFbEHP4JsQcvgExh69DGr4Gafg3iDl8FdLwFUjDlyEN/wpp+BdIwz9DzOGfIA1fgjR8EdLwBUjD5yENn4M0/CPEHD4LafgHSMPfQxr+DtLwGUjDpyENn4I0/C2k4ZOQhr+BNHwC0vBxSMNfQxo+Bmn4KKThI5CGv4I0/CWk4cOQhg9BGv4C0vBBSMMHIA3vhzS8D9Lw55CGP4M0/Cmk4b2QhvdAGt4NaXgXpOGdEHN4B6Th7ZCGP4E0vA3S8FZIw1sg5vBmiDm8CdLwRkjDGyDm8McQc3g9pOF1kIbXQhr+CNLwh5CG10AaXg1peBWk4ZUQc3gFpOHlkIaXQRpeCjGHP4A0vATS8GKIObwI0vBCSMMLIA2/DzGH50Mafg9iDs+DNDwX0vAciDk8G2IOz4KYwzMh5vAMSMPTIebwNMgwPGrm8FSIOTwF0vBkSMOWsYnvwjA+6Q25Ydxp0i6zRAAAAABJRU5ErkJggg==;" vertex="1" parent="1">
          <mxGeometry x="250" y="110" width="66" height="65.25" as="geometry" />
        </mxCell>
        <mxCell id="s9povCAqte1xbN43og-K-6" value="" style="shape=image;verticalLabelPosition=bottom;labelBackgroundColor=default;verticalAlign=top;aspect=fixed;imageAspect=0;image=data:image/png,iVBORw0KGgoAAAANSUhEUgAAALAAAACuCAMAAAChtXeHAAAAAXNSR0IArs4c6QAAAARnQU1BAACxjwv8YQUAAAGAUExURVlZWVpaWlpaWllZWVlZWW6b52+b52+c53Cc53Gd53Kd53Kd6HOe6HSe6HWf6Haf6Hag6Heg6Hig6Hmh6Hqi6Hqi6Xuj6Xyj6X2k6X6k6X+l6YCl6YGm6YKm6YOn6oSo6oWo6oap6oeq6oiq6omr6oqr64qs64yt646u65Cv65Cw7JKx7JSy7Jaz7Je07Zi17Zm17Zq27Zu37Z247p657p+67qC67qG77qK87qO976S976W+76a/76jA76jA8KrB8KvC8KzD8K3D8K7E8a/F8bDG8bHG8bLH8bPI8rTJ8rXJ8rbK8rfK8rjM87nM87rN87vN87zO873P877Q9MDR9MDS9MHS9MLT9cPU9cTU9cXV9cbW9cfW9cfX9sjY9snY9srZ9sva9sza983b987c98/d99De+NHe+NLf+NPf+NPg+NTg+NXh+dXi+dbi+dfi+dfj+djk+dnk+dnk+tnl+trl+tvl+tvm+tzm+tzn+t3n+t3n+93o+97o+97p+9/p+11/oLgAAAAEdFJOU4efx9+nhZkZAAAACXBIWXMAABcRAAAXEQHKJvM/AAACBUlEQVR4Xu3OZ9fPBQCA4QePPZOVrZCdXRlRiIRKVgPZI0XJKOSrc+7jK/xfXOf8rlf3y3tsbJwyAfsdH387/BoyDI+aOfw/pOFXkGF41IbhUWv4JWQYHrWGX0Aa/g/S8L+QYXjUGn4OafgZZBgeNXP4KaThJ5BheNQa/gfS8GNIw39DGv4LYg4/gpjDDyEN/wkxh/+ANPwAYg7/DjGH70Mavgdp+C7EHL4Dafg2pOFbEHP4JsQcvgExh69DGr4Gafg3iDl8FdLwFUjDlyEN/wpp+BdIwz9DzOGfIA1fgjR8EdLwBUjD5yENn4M0/CPEHD4LafgHSMPfQxr+DtLwGUjDpyENn4I0/C2k4ZOQhr+BNHwC0vBxSMNfQxo+Bmn4KKThI5CGv4I0/CWk4cOQhg9BGv4C0vBBSMMHIA3vhzS8D9Lw55CGP4M0/Cmk4b2QhvdAGt4NaXgXpOGdEHN4B6Th7ZCGP4E0vA3S8FZIw1sg5vBmiDm8CdLwRkjDGyDm8McQc3g9pOF1kIbXQhr+CNLwh5CG10AaXg1peBWk4ZUQc3gFpOHlkIaXQRpeCjGHP4A0vATS8GKIObwI0vBCSMMLIA2/DzGH50Mafg9iDs+DNDwX0vAciDk8G2IOz4KYwzMh5vAMSMPTIebwNMgwPGrm8FSIOTwF0vBkSMOWsYnvwjA+6Q25Ydxp0i6zRAAAAABJRU5ErkJggg==;" vertex="1" parent="1">
          <mxGeometry x="260" y="120" width="66" height="65.25" as="geometry" />
        </mxCell>
        <mxCell id="s9povCAqte1xbN43og-K-7" value="" style="shape=image;verticalLabelPosition=bottom;labelBackgroundColor=default;verticalAlign=top;aspect=fixed;imageAspect=0;image=data:image/png,iVBORw0KGgoAAAANSUhEUgAAALAAAACuCAMAAAChtXeHAAAAAXNSR0IArs4c6QAAAARnQU1BAACxjwv8YQUAAAGAUExURVlZWVpaWlpaWllZWVlZWW6b52+b52+c53Cc53Gd53Kd53Kd6HOe6HSe6HWf6Haf6Hag6Heg6Hig6Hmh6Hqi6Hqi6Xuj6Xyj6X2k6X6k6X+l6YCl6YGm6YKm6YOn6oSo6oWo6oap6oeq6oiq6omr6oqr64qs64yt646u65Cv65Cw7JKx7JSy7Jaz7Je07Zi17Zm17Zq27Zu37Z247p657p+67qC67qG77qK87qO976S976W+76a/76jA76jA8KrB8KvC8KzD8K3D8K7E8a/F8bDG8bHG8bLH8bPI8rTJ8rXJ8rbK8rfK8rjM87nM87rN87vN87zO873P877Q9MDR9MDS9MHS9MLT9cPU9cTU9cXV9cbW9cfW9cfX9sjY9snY9srZ9sva9sza983b987c98/d99De+NHe+NLf+NPf+NPg+NTg+NXh+dXi+dbi+dfi+dfj+djk+dnk+dnk+tnl+trl+tvl+tvm+tzm+tzn+t3n+t3n+93o+97o+97p+9/p+11/oLgAAAAEdFJOU4efx9+nhZkZAAAACXBIWXMAABcRAAAXEQHKJvM/AAACBUlEQVR4Xu3OZ9fPBQCA4QePPZOVrZCdXRlRiIRKVgPZI0XJKOSrc+7jK/xfXOf8rlf3y3tsbJwyAfsdH387/BoyDI+aOfw/pOFXkGF41IbhUWv4JWQYHrWGX0Aa/g/S8L+QYXjUGn4OafgZZBgeNXP4KaThJ5BheNQa/gfS8GNIw39DGv4LYg4/gpjDDyEN/wkxh/+ANPwAYg7/DjGH70Mavgdp+C7EHL4Dafg2pOFbEHP4JsQcvgExh69DGr4Gafg3iDl8FdLwFUjDlyEN/wpp+BdIwz9DzOGfIA1fgjR8EdLwBUjD5yENn4M0/CPEHD4LafgHSMPfQxr+DtLwGUjDpyENn4I0/C2k4ZOQhr+BNHwC0vBxSMNfQxo+Bmn4KKThI5CGv4I0/CWk4cOQhg9BGv4C0vBBSMMHIA3vhzS8D9Lw55CGP4M0/Cmk4b2QhvdAGt4NaXgXpOGdEHN4B6Th7ZCGP4E0vA3S8FZIw1sg5vBmiDm8CdLwRkjDGyDm8McQc3g9pOF1kIbXQhr+CNLwh5CG10AaXg1peBWk4ZUQc3gFpOHlkIaXQRpeCjGHP4A0vATS8GKIObwI0vBCSMMLIA2/DzGH50Mafg9iDs+DNDwX0vAciDk8G2IOz4KYwzMh5vAMSMPTIebwNMgwPGrm8FSIOTwF0vBkSMOWsYnvwjA+6Q25Ydxp0i6zRAAAAABJRU5ErkJggg==;" vertex="1" parent="1">
          <mxGeometry x="270" y="130" width="66" height="65.25" as="geometry" />
        </mxCell>
        <mxCell id="s9povCAqte1xbN43og-K-8" value="" style="shape=image;verticalLabelPosition=bottom;labelBackgroundColor=default;verticalAlign=top;aspect=fixed;imageAspect=0;image=data:image/png,iVBORw0KGgoAAAANSUhEUgAAALAAAACuCAMAAAChtXeHAAAAAXNSR0IArs4c6QAAAARnQU1BAACxjwv8YQUAAAGAUExURVlZWVpaWlpaWllZWVlZWW6b52+b52+c53Cc53Gd53Kd53Kd6HOe6HSe6HWf6Haf6Hag6Heg6Hig6Hmh6Hqi6Hqi6Xuj6Xyj6X2k6X6k6X+l6YCl6YGm6YKm6YOn6oSo6oWo6oap6oeq6oiq6omr6oqr64qs64yt646u65Cv65Cw7JKx7JSy7Jaz7Je07Zi17Zm17Zq27Zu37Z247p657p+67qC67qG77qK87qO976S976W+76a/76jA76jA8KrB8KvC8KzD8K3D8K7E8a/F8bDG8bHG8bLH8bPI8rTJ8rXJ8rbK8rfK8rjM87nM87rN87vN87zO873P877Q9MDR9MDS9MHS9MLT9cPU9cTU9cXV9cbW9cfW9cfX9sjY9snY9srZ9sva9sza983b987c98/d99De+NHe+NLf+NPf+NPg+NTg+NXh+dXi+dbi+dfi+dfj+djk+dnk+dnk+tnl+trl+tvl+tvm+tzm+tzn+t3n+t3n+93o+97o+97p+9/p+11/oLgAAAAEdFJOU4efx9+nhZkZAAAACXBIWXMAABcRAAAXEQHKJvM/AAACBUlEQVR4Xu3OZ9fPBQCA4QePPZOVrZCdXRlRiIRKVgPZI0XJKOSrc+7jK/xfXOf8rlf3y3tsbJwyAfsdH387/BoyDI+aOfw/pOFXkGF41IbhUWv4JWQYHrWGX0Aa/g/S8L+QYXjUGn4OafgZZBgeNXP4KaThJ5BheNQa/gfS8GNIw39DGv4LYg4/gpjDDyEN/wkxh/+ANPwAYg7/DjGH70Mavgdp+C7EHL4Dafg2pOFbEHP4JsQcvgExh69DGr4Gafg3iDl8FdLwFUjDlyEN/wpp+BdIwz9DzOGfIA1fgjR8EdLwBUjD5yENn4M0/CPEHD4LafgHSMPfQxr+DtLwGUjDpyENn4I0/C2k4ZOQhr+BNHwC0vBxSMNfQxo+Bmn4KKThI5CGv4I0/CWk4cOQhg9BGv4C0vBBSMMHIA3vhzS8D9Lw55CGP4M0/Cmk4b2QhvdAGt4NaXgXpOGdEHN4B6Th7ZCGP4E0vA3S8FZIw1sg5vBmiDm8CdLwRkjDGyDm8McQc3g9pOF1kIbXQhr+CNLwh5CG10AaXg1peBWk4ZUQc3gFpOHlkIaXQRpeCjGHP4A0vATS8GKIObwI0vBCSMMLIA2/DzGH50Mafg9iDs+DNDwX0vAciDk8G2IOz4KYwzMh5vAMSMPTIebwNMgwPGrm8FSIOTwF0vBkSMOWsYnvwjA+6Q25Ydxp0i6zRAAAAABJRU5ErkJggg==;" vertex="1" parent="1">
          <mxGeometry x="280" y="140" width="66" height="65.25" as="geometry" />
        </mxCell>
        <mxCell id="s9povCAqte1xbN43og-K-11" value="" style="shape=image;verticalLabelPosition=bottom;labelBackgroundColor=default;verticalAlign=top;aspect=fixed;imageAspect=0;image=data:image/png,iVBORw0KGgoAAAANSUhEUgAAAPUAAAFCCAMAAAAe12suAAAAAXNSR0IArs4c6QAAAARnQU1BAACxjwv8YQUAAABCUExURQAAAAAA/6Kux8rZ99Th+sPP+gAA/2Zu3HN6+1FZ5C4x7zk+/iks/h0e/hMU+Rga/xIT/wsM/gAA/wQE/gIC/gAA/6M6Y20AAAAVdFJOUwAwZWVlaoCCjJCyssXU2Nji7O/1+iyxnb8AAAAJcEhZcwAAFxEAABcRAcom8z8AAAQdSURBVHhe7d2HddxAAENBOVvO6fpv1cq6QPI2gQ/A4leAqQA3u/Tmz4Gqp1nY2NC7qO/Q396z9OH7Pmo29N891HToTzuo+dBv8WpCNF7NiIarKdFoNScarCZFY9WsaKiaFo1U86KBamI0Ts2Mhqmp0Sg1NxqkJkdj1OxoiJoejVDzowFqAfR4tQJ6uFoCPVqtgR6sFkGPVaugh6pl0CPVOuiBaiH0OLUSephaCj1KrYUepBZDj1GroYeo5dAj1HroAWpBdL9aEd2tlkT3qjXRnWpRdJ9aFd2llkX3qHXRHWphdLtaGd2slka3qrXRjWpxdJtaHd2klke3qPXRDWoDdL3aAV2ttkDXqj3QlWoTdJ3aBV2ltkHXqH3QFWojdLnaCV2stkKXqr3QhWozdJnaDV2ktkOXqP3QBWpD9HW1I/qq2hJ9Te2JvqI2RW+rXdGbalv0ltoXvaE2Rq+rndGramv0mtobvaI2Ry+r3dGLanv0ktofvaCeAH2pngF9oZ4Cfa6eA32mngR9qp4FfaKeBn2sngd9pJ4I/aqeCf2ingr9rJ4L/aSeDP2ong39oJ4Ofa++Q//6TNMe6Hs12VHBDuh79eHwk6ffhy9Py5A9qN/x9DVqWFEzFDWuqBmKGlfUDEWNK2qGosYVNUNR44qaoahxRc1Q1LiiZihqXFEzFDWuqBmKGlfUDEWNK2qGosYVNUNR44qaoahxRc1Q1LiiZihqXFEzFDWuqBmKGlfUDEWNK2qGosYVNUNR44qaoahxRc1Q1LiiZihqXFEzFDWuqBmKGlfUDEWNK2qGosYVNUNR44qaoahxRc1Q1LiiZihqXFEzFDWuqBmKGlfUDEWNK2qGosYVNUNR44qaoahh3c6ovv13+Did+gE9m/oRPZn6CT2X+hk9lfoFPZP6FT2R+gg9j/oYPY36BD2L+hQ9ifoMPYf6HD2F+gI9g/oSPYF6Ae2vXkLbqxfR7upltLl6Be2tXkNbq1fRzup1tLF6A+2r3kLbqjfRrupttKn6CtpTfQ1tqb6KdlRfRxuqC9B+6hK0nboI7aYuQ5upC9Fe6lK0lboY7aQuRxupK9A+6hq0jboK7aKuQ5uoK9Ee6lq0hboa7aCuRxuoG9D66ha0vLoJra5uQ4urG9Ha6la0tLoZraxuRwurO9C66h60rLoLraruQ4uqO9Ga6l60pLobrajuRwuqB6D11CPQcuohaDX1GLSYehBaSz0KLaUehlZSj0MLqQeiddQj0TLqoWgV9Vi0iHowWkM9Gi2hHo5WUI9HC6gBaH41Ak2vhqDZ1Rg0uRqE5laj0NRqGJpZjUMTq4FoXjUSTauGolnVWDSpGozmVKPRlGo4mlGNRxOqd0DzqfdA06l3QbOpf+yCZlMfdkHfqbnaBc2m3gN9c/MfwczPPfVssu4AAAAASUVORK5CYII=;direction=north;" vertex="1" parent="1">
          <mxGeometry x="397" y="93.63" width="157.71" height="120" as="geometry" />
        </mxCell>
        <mxCell id="s9povCAqte1xbN43og-K-12" value="" style="shape=image;verticalLabelPosition=bottom;labelBackgroundColor=default;verticalAlign=top;aspect=fixed;imageAspect=0;image=data:image/png,iVBORw0KGgoAAAANSUhEUgAAALAAAACuCAMAAAChtXeHAAAAAXNSR0IArs4c6QAAAARnQU1BAACxjwv8YQUAAAGAUExURVlZWVpaWlpaWllZWVlZWW6b52+b52+c53Cc53Gd53Kd53Kd6HOe6HSe6HWf6Haf6Hag6Heg6Hig6Hmh6Hqi6Hqi6Xuj6Xyj6X2k6X6k6X+l6YCl6YGm6YKm6YOn6oSo6oWo6oap6oeq6oiq6omr6oqr64qs64yt646u65Cv65Cw7JKx7JSy7Jaz7Je07Zi17Zm17Zq27Zu37Z247p657p+67qC67qG77qK87qO976S976W+76a/76jA76jA8KrB8KvC8KzD8K3D8K7E8a/F8bDG8bHG8bLH8bPI8rTJ8rXJ8rbK8rfK8rjM87nM87rN87vN87zO873P877Q9MDR9MDS9MHS9MLT9cPU9cTU9cXV9cbW9cfW9cfX9sjY9snY9srZ9sva9sza983b987c98/d99De+NHe+NLf+NPf+NPg+NTg+NXh+dXi+dbi+dfi+dfj+djk+dnk+dnk+tnl+trl+tvl+tvm+tzm+tzn+t3n+t3n+93o+97o+97p+9/p+11/oLgAAAAEdFJOU4efx9+nhZkZAAAACXBIWXMAABcRAAAXEQHKJvM/AAACBUlEQVR4Xu3OZ9fPBQCA4QePPZOVrZCdXRlRiIRKVgPZI0XJKOSrc+7jK/xfXOf8rlf3y3tsbJwyAfsdH387/BoyDI+aOfw/pOFXkGF41IbhUWv4JWQYHrWGX0Aa/g/S8L+QYXjUGn4OafgZZBgeNXP4KaThJ5BheNQa/gfS8GNIw39DGv4LYg4/gpjDDyEN/wkxh/+ANPwAYg7/DjGH70Mavgdp+C7EHL4Dafg2pOFbEHP4JsQcvgExh69DGr4Gafg3iDl8FdLwFUjDlyEN/wpp+BdIwz9DzOGfIA1fgjR8EdLwBUjD5yENn4M0/CPEHD4LafgHSMPfQxr+DtLwGUjDpyENn4I0/C2k4ZOQhr+BNHwC0vBxSMNfQxo+Bmn4KKThI5CGv4I0/CWk4cOQhg9BGv4C0vBBSMMHIA3vhzS8D9Lw55CGP4M0/Cmk4b2QhvdAGt4NaXgXpOGdEHN4B6Th7ZCGP4E0vA3S8FZIw1sg5vBmiDm8CdLwRkjDGyDm8McQc3g9pOF1kIbXQhr+CNLwh5CG10AaXg1peBWk4ZUQc3gFpOHlkIaXQRpeCjGHP4A0vATS8GKIObwI0vBCSMMLIA2/DzGH50Mafg9iDs+DNDwX0vAciDk8G2IOz4KYwzMh5vAMSMPTIebwNMgwPGrm8FSIOTwF0vBkSMOWsYnvwjA+6Q25Ydxp0i6zRAAAAABJRU5ErkJggg==;" vertex="1" parent="1">
          <mxGeometry x="597" y="91" width="66" height="65.25" as="geometry" />
        </mxCell>
        <mxCell id="s9povCAqte1xbN43og-K-13" value="" style="shape=image;verticalLabelPosition=bottom;labelBackgroundColor=default;verticalAlign=top;aspect=fixed;imageAspect=0;image=data:image/png,iVBORw0KGgoAAAANSUhEUgAAALAAAACuCAMAAAChtXeHAAAAAXNSR0IArs4c6QAAAARnQU1BAACxjwv8YQUAAAGAUExURVlZWVpaWlpaWllZWVlZWW6b52+b52+c53Cc53Gd53Kd53Kd6HOe6HSe6HWf6Haf6Hag6Heg6Hig6Hmh6Hqi6Hqi6Xuj6Xyj6X2k6X6k6X+l6YCl6YGm6YKm6YOn6oSo6oWo6oap6oeq6oiq6omr6oqr64qs64yt646u65Cv65Cw7JKx7JSy7Jaz7Je07Zi17Zm17Zq27Zu37Z247p657p+67qC67qG77qK87qO976S976W+76a/76jA76jA8KrB8KvC8KzD8K3D8K7E8a/F8bDG8bHG8bLH8bPI8rTJ8rXJ8rbK8rfK8rjM87nM87rN87vN87zO873P877Q9MDR9MDS9MHS9MLT9cPU9cTU9cXV9cbW9cfW9cfX9sjY9snY9srZ9sva9sza983b987c98/d99De+NHe+NLf+NPf+NPg+NTg+NXh+dXi+dbi+dfi+dfj+djk+dnk+dnk+tnl+trl+tvl+tvm+tzm+tzn+t3n+t3n+93o+97o+97p+9/p+11/oLgAAAAEdFJOU4efx9+nhZkZAAAACXBIWXMAABcRAAAXEQHKJvM/AAACBUlEQVR4Xu3OZ9fPBQCA4QePPZOVrZCdXRlRiIRKVgPZI0XJKOSrc+7jK/xfXOf8rlf3y3tsbJwyAfsdH387/BoyDI+aOfw/pOFXkGF41IbhUWv4JWQYHrWGX0Aa/g/S8L+QYXjUGn4OafgZZBgeNXP4KaThJ5BheNQa/gfS8GNIw39DGv4LYg4/gpjDDyEN/wkxh/+ANPwAYg7/DjGH70Mavgdp+C7EHL4Dafg2pOFbEHP4JsQcvgExh69DGr4Gafg3iDl8FdLwFUjDlyEN/wpp+BdIwz9DzOGfIA1fgjR8EdLwBUjD5yENn4M0/CPEHD4LafgHSMPfQxr+DtLwGUjDpyENn4I0/C2k4ZOQhr+BNHwC0vBxSMNfQxo+Bmn4KKThI5CGv4I0/CWk4cOQhg9BGv4C0vBBSMMHIA3vhzS8D9Lw55CGP4M0/Cmk4b2QhvdAGt4NaXgXpOGdEHN4B6Th7ZCGP4E0vA3S8FZIw1sg5vBmiDm8CdLwRkjDGyDm8McQc3g9pOF1kIbXQhr+CNLwh5CG10AaXg1peBWk4ZUQc3gFpOHlkIaXQRpeCjGHP4A0vATS8GKIObwI0vBCSMMLIA2/DzGH50Mafg9iDs+DNDwX0vAciDk8G2IOz4KYwzMh5vAMSMPTIebwNMgwPGrm8FSIOTwF0vBkSMOWsYnvwjA+6Q25Ydxp0i6zRAAAAABJRU5ErkJggg==;" vertex="1" parent="1">
          <mxGeometry x="607" y="101" width="66" height="65.25" as="geometry" />
        </mxCell>
        <mxCell id="s9povCAqte1xbN43og-K-14" value="" style="shape=image;verticalLabelPosition=bottom;labelBackgroundColor=default;verticalAlign=top;aspect=fixed;imageAspect=0;image=data:image/png,iVBORw0KGgoAAAANSUhEUgAAALAAAACuCAMAAAChtXeHAAAAAXNSR0IArs4c6QAAAARnQU1BAACxjwv8YQUAAAGAUExURVlZWVpaWlpaWllZWVlZWW6b52+b52+c53Cc53Gd53Kd53Kd6HOe6HSe6HWf6Haf6Hag6Heg6Hig6Hmh6Hqi6Hqi6Xuj6Xyj6X2k6X6k6X+l6YCl6YGm6YKm6YOn6oSo6oWo6oap6oeq6oiq6omr6oqr64qs64yt646u65Cv65Cw7JKx7JSy7Jaz7Je07Zi17Zm17Zq27Zu37Z247p657p+67qC67qG77qK87qO976S976W+76a/76jA76jA8KrB8KvC8KzD8K3D8K7E8a/F8bDG8bHG8bLH8bPI8rTJ8rXJ8rbK8rfK8rjM87nM87rN87vN87zO873P877Q9MDR9MDS9MHS9MLT9cPU9cTU9cXV9cbW9cfW9cfX9sjY9snY9srZ9sva9sza983b987c98/d99De+NHe+NLf+NPf+NPg+NTg+NXh+dXi+dbi+dfi+dfj+djk+dnk+dnk+tnl+trl+tvl+tvm+tzm+tzn+t3n+t3n+93o+97o+97p+9/p+11/oLgAAAAEdFJOU4efx9+nhZkZAAAACXBIWXMAABcRAAAXEQHKJvM/AAACBUlEQVR4Xu3OZ9fPBQCA4QePPZOVrZCdXRlRiIRKVgPZI0XJKOSrc+7jK/xfXOf8rlf3y3tsbJwyAfsdH387/BoyDI+aOfw/pOFXkGF41IbhUWv4JWQYHrWGX0Aa/g/S8L+QYXjUGn4OafgZZBgeNXP4KaThJ5BheNQa/gfS8GNIw39DGv4LYg4/gpjDDyEN/wkxh/+ANPwAYg7/DjGH70Mavgdp+C7EHL4Dafg2pOFbEHP4JsQcvgExh69DGr4Gafg3iDl8FdLwFUjDlyEN/wpp+BdIwz9DzOGfIA1fgjR8EdLwBUjD5yENn4M0/CPEHD4LafgHSMPfQxr+DtLwGUjDpyENn4I0/C2k4ZOQhr+BNHwC0vBxSMNfQxo+Bmn4KKThI5CGv4I0/CWk4cOQhg9BGv4C0vBBSMMHIA3vhzS8D9Lw55CGP4M0/Cmk4b2QhvdAGt4NaXgXpOGdEHN4B6Th7ZCGP4E0vA3S8FZIw1sg5vBmiDm8CdLwRkjDGyDm8McQc3g9pOF1kIbXQhr+CNLwh5CG10AaXg1peBWk4ZUQc3gFpOHlkIaXQRpeCjGHP4A0vATS8GKIObwI0vBCSMMLIA2/DzGH50Mafg9iDs+DNDwX0vAciDk8G2IOz4KYwzMh5vAMSMPTIebwNMgwPGrm8FSIOTwF0vBkSMOWsYnvwjA+6Q25Ydxp0i6zRAAAAABJRU5ErkJggg==;" vertex="1" parent="1">
          <mxGeometry x="617" y="111" width="66" height="65.25" as="geometry" />
        </mxCell>
        <mxCell id="s9povCAqte1xbN43og-K-15" value="" style="shape=image;verticalLabelPosition=bottom;labelBackgroundColor=default;verticalAlign=top;aspect=fixed;imageAspect=0;image=data:image/png,iVBORw0KGgoAAAANSUhEUgAAALAAAACuCAMAAAChtXeHAAAAAXNSR0IArs4c6QAAAARnQU1BAACxjwv8YQUAAAGAUExURVlZWVpaWlpaWllZWVlZWW6b52+b52+c53Cc53Gd53Kd53Kd6HOe6HSe6HWf6Haf6Hag6Heg6Hig6Hmh6Hqi6Hqi6Xuj6Xyj6X2k6X6k6X+l6YCl6YGm6YKm6YOn6oSo6oWo6oap6oeq6oiq6omr6oqr64qs64yt646u65Cv65Cw7JKx7JSy7Jaz7Je07Zi17Zm17Zq27Zu37Z247p657p+67qC67qG77qK87qO976S976W+76a/76jA76jA8KrB8KvC8KzD8K3D8K7E8a/F8bDG8bHG8bLH8bPI8rTJ8rXJ8rbK8rfK8rjM87nM87rN87vN87zO873P877Q9MDR9MDS9MHS9MLT9cPU9cTU9cXV9cbW9cfW9cfX9sjY9snY9srZ9sva9sza983b987c98/d99De+NHe+NLf+NPf+NPg+NTg+NXh+dXi+dbi+dfi+dfj+djk+dnk+dnk+tnl+trl+tvl+tvm+tzm+tzn+t3n+t3n+93o+97o+97p+9/p+11/oLgAAAAEdFJOU4efx9+nhZkZAAAACXBIWXMAABcRAAAXEQHKJvM/AAACBUlEQVR4Xu3OZ9fPBQCA4QePPZOVrZCdXRlRiIRKVgPZI0XJKOSrc+7jK/xfXOf8rlf3y3tsbJwyAfsdH387/BoyDI+aOfw/pOFXkGF41IbhUWv4JWQYHrWGX0Aa/g/S8L+QYXjUGn4OafgZZBgeNXP4KaThJ5BheNQa/gfS8GNIw39DGv4LYg4/gpjDDyEN/wkxh/+ANPwAYg7/DjGH70Mavgdp+C7EHL4Dafg2pOFbEHP4JsQcvgExh69DGr4Gafg3iDl8FdLwFUjDlyEN/wpp+BdIwz9DzOGfIA1fgjR8EdLwBUjD5yENn4M0/CPEHD4LafgHSMPfQxr+DtLwGUjDpyENn4I0/C2k4ZOQhr+BNHwC0vBxSMNfQxo+Bmn4KKThI5CGv4I0/CWk4cOQhg9BGv4C0vBBSMMHIA3vhzS8D9Lw55CGP4M0/Cmk4b2QhvdAGt4NaXgXpOGdEHN4B6Th7ZCGP4E0vA3S8FZIw1sg5vBmiDm8CdLwRkjDGyDm8McQc3g9pOF1kIbXQhr+CNLwh5CG10AaXg1peBWk4ZUQc3gFpOHlkIaXQRpeCjGHP4A0vATS8GKIObwI0vBCSMMLIA2/DzGH50Mafg9iDs+DNDwX0vAciDk8G2IOz4KYwzMh5vAMSMPTIebwNMgwPGrm8FSIOTwF0vBkSMOWsYnvwjA+6Q25Ydxp0i6zRAAAAABJRU5ErkJggg==;" vertex="1" parent="1">
          <mxGeometry x="627" y="121" width="66" height="65.25" as="geometry" />
        </mxCell>
        <mxCell id="s9povCAqte1xbN43og-K-16" value="" style="shape=image;verticalLabelPosition=bottom;labelBackgroundColor=default;verticalAlign=top;aspect=fixed;imageAspect=0;image=data:image/png,iVBORw0KGgoAAAANSUhEUgAAALAAAACuCAMAAAChtXeHAAAAAXNSR0IArs4c6QAAAARnQU1BAACxjwv8YQUAAAGAUExURVlZWVpaWlpaWllZWVlZWW6b52+b52+c53Cc53Gd53Kd53Kd6HOe6HSe6HWf6Haf6Hag6Heg6Hig6Hmh6Hqi6Hqi6Xuj6Xyj6X2k6X6k6X+l6YCl6YGm6YKm6YOn6oSo6oWo6oap6oeq6oiq6omr6oqr64qs64yt646u65Cv65Cw7JKx7JSy7Jaz7Je07Zi17Zm17Zq27Zu37Z247p657p+67qC67qG77qK87qO976S976W+76a/76jA76jA8KrB8KvC8KzD8K3D8K7E8a/F8bDG8bHG8bLH8bPI8rTJ8rXJ8rbK8rfK8rjM87nM87rN87vN87zO873P877Q9MDR9MDS9MHS9MLT9cPU9cTU9cXV9cbW9cfW9cfX9sjY9snY9srZ9sva9sza983b987c98/d99De+NHe+NLf+NPf+NPg+NTg+NXh+dXi+dbi+dfi+dfj+djk+dnk+dnk+tnl+trl+tvl+tvm+tzm+tzn+t3n+t3n+93o+97o+97p+9/p+11/oLgAAAAEdFJOU4efx9+nhZkZAAAACXBIWXMAABcRAAAXEQHKJvM/AAACBUlEQVR4Xu3OZ9fPBQCA4QePPZOVrZCdXRlRiIRKVgPZI0XJKOSrc+7jK/xfXOf8rlf3y3tsbJwyAfsdH387/BoyDI+aOfw/pOFXkGF41IbhUWv4JWQYHrWGX0Aa/g/S8L+QYXjUGn4OafgZZBgeNXP4KaThJ5BheNQa/gfS8GNIw39DGv4LYg4/gpjDDyEN/wkxh/+ANPwAYg7/DjGH70Mavgdp+C7EHL4Dafg2pOFbEHP4JsQcvgExh69DGr4Gafg3iDl8FdLwFUjDlyEN/wpp+BdIwz9DzOGfIA1fgjR8EdLwBUjD5yENn4M0/CPEHD4LafgHSMPfQxr+DtLwGUjDpyENn4I0/C2k4ZOQhr+BNHwC0vBxSMNfQxo+Bmn4KKThI5CGv4I0/CWk4cOQhg9BGv4C0vBBSMMHIA3vhzS8D9Lw55CGP4M0/Cmk4b2QhvdAGt4NaXgXpOGdEHN4B6Th7ZCGP4E0vA3S8FZIw1sg5vBmiDm8CdLwRkjDGyDm8McQc3g9pOF1kIbXQhr+CNLwh5CG10AaXg1peBWk4ZUQc3gFpOHlkIaXQRpeCjGHP4A0vATS8GKIObwI0vBCSMMLIA2/DzGH50Mafg9iDs+DNDwX0vAciDk8G2IOz4KYwzMh5vAMSMPTIebwNMgwPGrm8FSIOTwF0vBkSMOWsYnvwjA+6Q25Ydxp0i6zRAAAAABJRU5ErkJggg==;" vertex="1" parent="1">
          <mxGeometry x="637" y="131" width="66" height="65.25" as="geometry" />
        </mxCell>
        <mxCell id="s9povCAqte1xbN43og-K-17" value="" style="shape=image;verticalLabelPosition=bottom;labelBackgroundColor=default;verticalAlign=top;aspect=fixed;imageAspect=0;image=data:image/png,iVBORw0KGgoAAAANSUhEUgAAALAAAACuCAMAAAChtXeHAAAAAXNSR0IArs4c6QAAAARnQU1BAACxjwv8YQUAAAGAUExURVlZWVpaWlpaWllZWVlZWW6b52+b52+c53Cc53Gd53Kd53Kd6HOe6HSe6HWf6Haf6Hag6Heg6Hig6Hmh6Hqi6Hqi6Xuj6Xyj6X2k6X6k6X+l6YCl6YGm6YKm6YOn6oSo6oWo6oap6oeq6oiq6omr6oqr64qs64yt646u65Cv65Cw7JKx7JSy7Jaz7Je07Zi17Zm17Zq27Zu37Z247p657p+67qC67qG77qK87qO976S976W+76a/76jA76jA8KrB8KvC8KzD8K3D8K7E8a/F8bDG8bHG8bLH8bPI8rTJ8rXJ8rbK8rfK8rjM87nM87rN87vN87zO873P877Q9MDR9MDS9MHS9MLT9cPU9cTU9cXV9cbW9cfW9cfX9sjY9snY9srZ9sva9sza983b987c98/d99De+NHe+NLf+NPf+NPg+NTg+NXh+dXi+dbi+dfi+dfj+djk+dnk+dnk+tnl+trl+tvl+tvm+tzm+tzn+t3n+t3n+93o+97o+97p+9/p+11/oLgAAAAEdFJOU4efx9+nhZkZAAAACXBIWXMAABcRAAAXEQHKJvM/AAACBUlEQVR4Xu3OZ9fPBQCA4QePPZOVrZCdXRlRiIRKVgPZI0XJKOSrc+7jK/xfXOf8rlf3y3tsbJwyAfsdH387/BoyDI+aOfw/pOFXkGF41IbhUWv4JWQYHrWGX0Aa/g/S8L+QYXjUGn4OafgZZBgeNXP4KaThJ5BheNQa/gfS8GNIw39DGv4LYg4/gpjDDyEN/wkxh/+ANPwAYg7/DjGH70Mavgdp+C7EHL4Dafg2pOFbEHP4JsQcvgExh69DGr4Gafg3iDl8FdLwFUjDlyEN/wpp+BdIwz9DzOGfIA1fgjR8EdLwBUjD5yENn4M0/CPEHD4LafgHSMPfQxr+DtLwGUjDpyENn4I0/C2k4ZOQhr+BNHwC0vBxSMNfQxo+Bmn4KKThI5CGv4I0/CWk4cOQhg9BGv4C0vBBSMMHIA3vhzS8D9Lw55CGP4M0/Cmk4b2QhvdAGt4NaXgXpOGdEHN4B6Th7ZCGP4E0vA3S8FZIw1sg5vBmiDm8CdLwRkjDGyDm8McQc3g9pOF1kIbXQhr+CNLwh5CG10AaXg1peBWk4ZUQc3gFpOHlkIaXQRpeCjGHP4A0vATS8GKIObwI0vBCSMMLIA2/DzGH50Mafg9iDs+DNDwX0vAciDk8G2IOz4KYwzMh5vAMSMPTIebwNMgwPGrm8FSIOTwF0vBkSMOWsYnvwjA+6Q25Ydxp0i6zRAAAAABJRU5ErkJggg==;" vertex="1" parent="1">
          <mxGeometry x="647" y="141" width="66" height="65.25" as="geometry" />
        </mxCell>
        <mxCell id="s9povCAqte1xbN43og-K-21" value="&lt;font style=&quot;font-size: 18px;&quot; face=&quot;Times New Roman&quot;&gt;Dropout&amp;nbsp; Layer&lt;/font&gt;" style="text;strokeColor=none;align=center;fillColor=none;html=1;verticalAlign=middle;whiteSpace=wrap;rounded=0;" vertex="1" parent="1">
          <mxGeometry x="236" y="10" width="70" height="30" as="geometry" />
        </mxCell>
        <mxCell id="s9povCAqte1xbN43og-K-22" value="&lt;font style=&quot;font-size: 18px;&quot; face=&quot;Times New Roman&quot;&gt;Dropout&amp;nbsp; Layer&lt;/font&gt;" style="text;strokeColor=none;align=center;fillColor=none;html=1;verticalAlign=middle;whiteSpace=wrap;rounded=0;" vertex="1" parent="1">
          <mxGeometry x="602" y="10" width="70" height="30" as="geometry" />
        </mxCell>
        <mxCell id="s9povCAqte1xbN43og-K-23" value="&lt;font style=&quot;font-size: 18px;&quot; face=&quot;Times New Roman&quot;&gt;Dropout&amp;nbsp; = 0.3&lt;/font&gt;" style="text;strokeColor=none;align=center;fillColor=none;html=1;verticalAlign=middle;whiteSpace=wrap;rounded=0;" vertex="1" parent="1">
          <mxGeometry x="250" y="250" width="124" height="30" as="geometry" />
        </mxCell>
        <mxCell id="s9povCAqte1xbN43og-K-24" value="&lt;font style=&quot;font-size: 18px;&quot; face=&quot;Times New Roman&quot;&gt;Dropout&amp;nbsp; = 0.3&lt;/font&gt;" style="text;strokeColor=none;align=center;fillColor=none;html=1;verticalAlign=middle;whiteSpace=wrap;rounded=0;" vertex="1" parent="1">
          <mxGeometry x="589" y="250" width="124" height="30" as="geometry" />
        </mxCell>
        <mxCell id="s9povCAqte1xbN43og-K-28" value="" style="shape=image;verticalLabelPosition=bottom;labelBackgroundColor=default;verticalAlign=top;aspect=fixed;imageAspect=0;image=data:image/png,iVBORw0KGgoAAAANSUhEUgAAAB8AAAAeCAMAAADjLDWuAAAAAXNSR0IArs4c6QAAAARnQU1BAACxjwv8YQUAAAASUExURVlZWVpaWlpaWllZWVlZWaTC9GiuGpwAAAAEdFJOU4efx9+nhZkZAAAACXBIWXMAABcRAAAXEQHKJvM/AAAAKUlEQVQ4T2NgYMEHGPFLs7AA5Vlxg1H5UflRedwALI8XMDBBGVgBCzMATsIRPZeQRngAAAAASUVORK5CYII=;" vertex="1" parent="1">
          <mxGeometry x="770" y="72" width="31" height="30" as="geometry" />
        </mxCell>
        <mxCell id="s9povCAqte1xbN43og-K-29" value="" style="shape=image;verticalLabelPosition=bottom;labelBackgroundColor=default;verticalAlign=top;aspect=fixed;imageAspect=0;image=data:image/png,iVBORw0KGgoAAAANSUhEUgAAAB8AAAAeCAMAAADjLDWuAAAAAXNSR0IArs4c6QAAAARnQU1BAACxjwv8YQUAAAASUExURVlZWVpaWlpaWllZWVlZWaTC9GiuGpwAAAAEdFJOU4efx9+nhZkZAAAACXBIWXMAABcRAAAXEQHKJvM/AAAAKUlEQVQ4T2NgYMEHGPFLs7AA5Vlxg1H5UflRedwALI8XMDBBGVgBCzMATsIRPZeQRngAAAAASUVORK5CYII=;" vertex="1" parent="1">
          <mxGeometry x="770" y="96.25" width="31" height="30" as="geometry" />
        </mxCell>
        <mxCell id="s9povCAqte1xbN43og-K-30" value="" style="shape=image;verticalLabelPosition=bottom;labelBackgroundColor=default;verticalAlign=top;aspect=fixed;imageAspect=0;image=data:image/png,iVBORw0KGgoAAAANSUhEUgAAAB8AAAAeCAMAAADjLDWuAAAAAXNSR0IArs4c6QAAAARnQU1BAACxjwv8YQUAAAASUExURVlZWVpaWlpaWllZWVlZWaTC9GiuGpwAAAAEdFJOU4efx9+nhZkZAAAACXBIWXMAABcRAAAXEQHKJvM/AAAAKUlEQVQ4T2NgYMEHGPFLs7AA5Vlxg1H5UflRedwALI8XMDBBGVgBCzMATsIRPZeQRngAAAAASUVORK5CYII=;" vertex="1" parent="1">
          <mxGeometry x="770" y="125.25" width="31" height="30" as="geometry" />
        </mxCell>
        <mxCell id="s9povCAqte1xbN43og-K-31" value="" style="shape=image;verticalLabelPosition=bottom;labelBackgroundColor=default;verticalAlign=top;aspect=fixed;imageAspect=0;image=data:image/png,iVBORw0KGgoAAAANSUhEUgAAAB8AAAAeCAMAAADjLDWuAAAAAXNSR0IArs4c6QAAAARnQU1BAACxjwv8YQUAAAASUExURVlZWVpaWlpaWllZWVlZWaTC9GiuGpwAAAAEdFJOU4efx9+nhZkZAAAACXBIWXMAABcRAAAXEQHKJvM/AAAAKUlEQVQ4T2NgYMEHGPFLs7AA5Vlxg1H5UflRedwALI8XMDBBGVgBCzMATsIRPZeQRngAAAAASUVORK5CYII=;" vertex="1" parent="1">
          <mxGeometry x="770" y="154" width="31" height="30" as="geometry" />
        </mxCell>
        <mxCell id="s9povCAqte1xbN43og-K-32" value="" style="shape=image;verticalLabelPosition=bottom;labelBackgroundColor=default;verticalAlign=top;aspect=fixed;imageAspect=0;image=data:image/png,iVBORw0KGgoAAAANSUhEUgAAAB8AAAAeCAMAAADjLDWuAAAAAXNSR0IArs4c6QAAAARnQU1BAACxjwv8YQUAAAASUExURVlZWVpaWlpaWllZWVlZWaTC9GiuGpwAAAAEdFJOU4efx9+nhZkZAAAACXBIWXMAABcRAAAXEQHKJvM/AAAAKUlEQVQ4T2NgYMEHGPFLs7AA5Vlxg1H5UflRedwALI8XMDBBGVgBCzMATsIRPZeQRngAAAAASUVORK5CYII=;" vertex="1" parent="1">
          <mxGeometry x="770" y="183" width="31" height="30" as="geometry" />
        </mxCell>
        <mxCell id="s9povCAqte1xbN43og-K-33" value="" style="shape=image;verticalLabelPosition=bottom;labelBackgroundColor=default;verticalAlign=top;aspect=fixed;imageAspect=0;image=data:image/png,iVBORw0KGgoAAAANSUhEUgAAAB8AAAAeCAMAAADjLDWuAAAAAXNSR0IArs4c6QAAAARnQU1BAACxjwv8YQUAAAASUExURVlZWVpaWlpaWllZWVlZWaTC9GiuGpwAAAAEdFJOU4efx9+nhZkZAAAACXBIWXMAABcRAAAXEQHKJvM/AAAAKUlEQVQ4T2NgYMEHGPFLs7AA5Vlxg1H5UflRedwALI8XMDBBGVgBCzMATsIRPZeQRngAAAAASUVORK5CYII=;" vertex="1" parent="1">
          <mxGeometry x="770" y="213" width="31" height="30" as="geometry" />
        </mxCell>
        <mxCell id="s9povCAqte1xbN43og-K-36" value="" style="ellipse;whiteSpace=wrap;html=1;" vertex="1" parent="1">
          <mxGeometry x="866" y="128.13" width="50" height="49" as="geometry" />
        </mxCell>
        <mxCell id="s9povCAqte1xbN43og-K-37" value="&lt;font style=&quot;font-size: 18px;&quot; face=&quot;Times New Roman&quot;&gt;Dense&lt;/font&gt;" style="text;strokeColor=none;align=center;fillColor=none;html=1;verticalAlign=middle;whiteSpace=wrap;rounded=0;" vertex="1" parent="1">
          <mxGeometry x="750.5" y="10" width="70" height="30" as="geometry" />
        </mxCell>
        <mxCell id="s9povCAqte1xbN43og-K-38" value="&lt;font style=&quot;font-size: 18px;&quot; face=&quot;Times New Roman&quot;&gt;Dense=1&lt;/font&gt;" style="text;strokeColor=none;align=center;fillColor=none;html=1;verticalAlign=middle;whiteSpace=wrap;rounded=0;" vertex="1" parent="1">
          <mxGeometry x="757" y="250" width="70" height="30" as="geometry" />
        </mxCell>
        <mxCell id="s9povCAqte1xbN43og-K-39" value="&lt;font style=&quot;font-size: 18px;&quot; face=&quot;Times New Roman&quot;&gt;Output Layer&lt;/font&gt;" style="text;strokeColor=none;align=center;fillColor=none;html=1;verticalAlign=middle;whiteSpace=wrap;rounded=0;" vertex="1" parent="1">
          <mxGeometry x="846" y="10" width="70" height="30" as="geometry" />
        </mxCell>
        <mxCell id="s9povCAqte1xbN43og-K-44" value="" style="whiteSpace=wrap;html=1;aspect=fixed;fillColor=#dae8fc;strokeColor=#6c8ebf;" vertex="1" parent="1">
          <mxGeometry x="-200" y="88.88" width="117.37" height="117.37" as="geometry" />
        </mxCell>
        <mxCell id="s9povCAqte1xbN43og-K-48" value="" style="whiteSpace=wrap;html=1;aspect=fixed;" vertex="1" parent="1">
          <mxGeometry x="-140" y="125.25" width="40" height="40" as="geometry" />
        </mxCell>
      </root>
    </mxGraphModel>
  </diagram>
</mxfile>
